<?xml version="1.0" encoding="utf-8"?>
<!-- Generator: Adobe Illustrator 19.2.1, SVG Export Plug-In . SVG Version: 6.00 Build 0)  -->
<svg version="1.1" id="Layer_2" xmlns="http://www.w3.org/2000/svg" xmlns:xlink="http://www.w3.org/1999/xlink" x="0px" y="0px"
	 viewBox="0 0 80.3 80.3" style="enable-background:new 0 0 80.3 80.3;" xml:space="preserve">
<style type="text/css">
	.st0{fill:#EB6A5C;}
	.st1{fill:#552F2F;}
	.st2{fill:#55AB99;}
	.st3{fill:#2F4555;}
	.st4{fill:#FFFFFF;}
	.st5{fill:#ED6B5A;}
	.st6{fill:#0C2C48;}
	.st7{fill:#F1CC4B;}
	.st8{clip-path:url(#SVGID_2_);}
	.st9{clip-path:url(#SVGID_2_);fill:#F6A09C;}
	.st10{fill:#50646F;}
	.st11{fill:#FCA886;}
	.st12{fill:#EDAB7E;}
	.st13{fill:#332319;}
	.st14{fill:#E07E45;}
	.st15{fill:#FF8F8F;}
	.st16{fill:#A6D1D9;}
	.st17{fill:#628185;}
	.st18{fill:#BABABA;}
	.st19{fill:#698391;}
	.st20{opacity:0.41;fill:#FFFFFF;}
	.st21{fill:#F6A09C;}
	.st22{fill:#FFF3C9;}
	.st23{fill:#2384AB;}
	.st24{fill:#BABFC5;}
	.st25{clip-path:url(#SVGID_4_);}
	.st26{fill:#6EB9E0;}
	.st27{fill:#F8A06D;}
	.st28{fill:#A3B9C4;}
	.st29{fill:#3B4A52;}
	.st30{clip-path:url(#SVGID_6_);}
	.st31{clip-path:url(#SVGID_8_);fill:#F6A09C;}
	.st32{opacity:0.21;fill:#FFFFFF;}
	.st33{clip-path:url(#SVGID_10_);fill:#F6A09C;}
	.st34{clip-path:url(#SVGID_12_);}
	.st35{fill:#FFD3B5;}
	.st36{fill:#BFD9E6;}
	.st37{fill:#798287;}
	.st38{fill:#A4A8AD;}
	.st39{fill:#FFD6BA;}
	.st40{fill:none;stroke:#0C2C48;stroke-width:1.4;stroke-miterlimit:10;}
</style>
<g>
	<circle class="st21" cx="40.2" cy="40.2" r="40.2"/>
	<g>
		<g>
			<g>
				<g>
					<g>
						<path class="st6" d="M67.7,56.2c0,0.7-0.5,1.2-1.2,1.2H13.8c-0.7,0-1.2-0.5-1.2-1.2V17.4c0-0.7,0.5-1.2,1.2-1.2h52.8
							c0.7,0,1.2,0.5,1.2,1.2V56.2z"/>
						<rect x="29.8" y="56.3" class="st18" width="20.7" height="7"/>
					</g>
				</g>
				<rect x="15.5" y="18.6" class="st28" width="49.2" height="30.5"/>
				<path class="st4" d="M12.6,48.1v8.1c0,0.7,0.5,1.2,1.2,1.2h52.8c0.7,0,1.2-0.5,1.2-1.2v-8.1H12.6z"/>
				<path class="st4" d="M55.7,68.1v-2.2c0-1.7-1.3-3-3-3h-25c-1.7,0-3,1.3-3,3v2.2H55.7z"/>
			</g>
			<circle class="st6" cx="40.2" cy="52.5" r="1.5"/>
		</g>
	</g>
	<g>
		<path class="st4" d="M32.8,38.2L23.5,34v-1.6l9.3-4.5v2.4l-6.6,2.8v0.1l6.6,2.7V38.2z"/>
		<path class="st10" d="M44.6,24.6l-7,16.7h-2.8l6.9-16.7H44.6z"/>
		<path class="st5" d="M56.2,33.8l-9.3,4.2v-2.4l6.7-2.7v0l-6.7-2.8v-2.4l9.3,4.4V33.8z"/>
	</g>
</g>
</svg>
